<svg xmlns="http://www.w3.org/2000/svg" viewBox="0 0 864.82 1005.09"><defs><style>.a{fill:#fff;}</style></defs><title>calidad</title><path class="a" d="M432.45,564.4c113.78,0,206.31-92.55,206.31-206.31S546.23,151.74,432.45,151.74,226.06,244.31,226.06,358.09,318.67,564.4,432.45,564.4Zm0-371.28c91,0,164.93,74,164.93,165S523.44,523,432.45,523s-165-74-165-164.94S341.46,193.12,432.45,193.12Z"/><path class="a" d="M859.61,824.44l-140.2-252.5a356.24,356.24,0,0,0,71-213.86C790.44,160.63,629.87,0,432.45,0S74.3,160.63,74.3,358.09A356.12,356.12,0,0,0,145.39,572L5.21,824.44a41.33,41.33,0,0,0,35.23,61.44l117,2.66,64.08,97.84a41.39,41.39,0,0,0,34.59,18.7c0.48,0,1.05,0,1.54,0a41.45,41.45,0,0,0,34.67-21.27L432.41,731.55,572.5,983.8a41.34,41.34,0,0,0,34.66,21.27c0.49,0,1,0,1.46,0a41.28,41.28,0,0,0,34.58-18.7l64.16-97.84,117-2.66A41.4,41.4,0,0,0,859.61,824.44ZM432.45,82.75c151.76,0,275.24,123.52,275.24,275.34s-123.47,275.3-275.24,275.3-275.4-123.49-275.4-275.3S280.61,82.75,432.45,82.75Zm-179.23,801L214.67,825a41.3,41.3,0,0,0-33.62-18.67l-70.3-1.6,94.47-170.07A357.26,357.26,0,0,0,351.46,706.9Zm430.55-77.44A41.32,41.32,0,0,0,650.07,825l-38.55,58.77L513.35,706.92a357,357,0,0,0,146.24-72.27L754,804.72Z"/></svg>