<svg xmlns="http://www.w3.org/2000/svg" viewBox="0 0 348.76 316.96"><defs><style>.a{fill:#fff;}</style></defs><title>eventos</title><path class="a" d="M347.52,100.33L304.78,7.83A13.51,13.51,0,0,0,292.52,0h-243A13.51,13.51,0,0,0,36.94,8.6l-36,92.5A13.61,13.61,0,0,0,0,106a58.33,58.33,0,0,0,37.15,54.28V303.46A13.49,13.49,0,0,0,50.65,317H298.13a13.49,13.49,0,0,0,13.5-13.5V160.27A58.34,58.34,0,0,0,348.76,106,13.6,13.6,0,0,0,347.52,100.33ZM58.75,27H283.9L291,42.46H52.72Zm187.5,263h-144v-85.5h144V290Zm38.39,0H259.74V197.71A6.76,6.76,0,0,0,253,191H95.5a6.74,6.74,0,0,0-6.75,6.75V290H64.15v-126A58.24,58.24,0,0,0,97,149.3a57.58,57.58,0,0,0,77.41,0,57.58,57.58,0,0,0,77.41,0,58.15,58.15,0,0,0,32.83,14.64V290Zm5.88-152.71a30.88,30.88,0,0,1-27-15.87,13.51,13.51,0,0,0-23.44,0,30.88,30.88,0,0,1-54,0c-4.82-8.38-18.62-8.38-23.44,0a30.88,30.88,0,0,1-54,0c-4.83-8.38-18.62-8.38-23.44,0a30.83,30.83,0,0,1-27,15.87,31.34,31.34,0,0,1-31.19-28.94L47.47,56H297.28l24.37,52.75A31.31,31.31,0,0,1,290.51,137.25Z"/></svg>