<svg xmlns="http://www.w3.org/2000/svg" viewBox="0 0 1064.94 1187.74"><defs><style>.a{fill:#fff;}</style></defs><title>instructivos</title><path class="a" d="M1041.88,5.95A45.75,45.75,0,0,0,996,6.39L696.78,184.6,397.63,6.39A46.84,46.84,0,0,0,371.72.07a45.29,45.29,0,0,0-25.91,6.32L22.26,199.06A45.62,45.62,0,0,0,0,238.24v903.92a45.6,45.6,0,0,0,68.91,39.18L371.72,1001l295.42,176a53.37,53.37,0,0,0,6.67,4.54,44.91,44.91,0,0,0,16,5.34,47.23,47.23,0,0,0,30.54-5.65,42.87,42.87,0,0,0,6.23-4.32l316.07-188.22a45.61,45.61,0,0,0,22.26-39.17V45.57A45.61,45.61,0,0,0,1041.88,5.95ZM323.55,923.58L91.17,1061.94V264.15L323.55,125.79V923.58Zm326.67,137.16L419.88,923.58V125.79L650.22,262.94v797.79ZM973.77,923.58L743.44,1060.74V262.94L973.77,125.79V923.58Z"/></svg>