<svg id="Capa_1" data-name="Capa 1" xmlns="http://www.w3.org/2000/svg" viewBox="0 0 100 100"><defs><style>.cls-1{fill:#fff;}.cls-2{fill:none;}</style></defs><title>iconos</title><path class="cls-1" d="M85.52,77.11H69.44a34.57,34.57,0,0,1-19.28,5.36,34.58,34.58,0,0,1-19.28-5.36H14.49c-4.79,0-8.87,5.68-8.87,10.47V100H94.14V87.59c0-4.79-3.83-10.47-8.62-10.47Zm0,0"/><path class="cls-1" d="M50.16,77.58a32.39,32.39,0,0,0,32-37.49H76.64v1.18a8.34,8.34,0,0,1-8.14,8.58H61.44a8.81,8.81,0,0,1-8.69-8.58V40.09h-5v1.18a8.34,8.34,0,0,1-8.14,8.58H32.49a8.81,8.81,0,0,1-8.7-8.58V40.09H18.17a32.4,32.4,0,0,0,32,37.49Zm5.39-10.76"/><path class="cls-1" d="M19.5,23.26H12A5.89,5.89,0,1,0,12,35h76.4a5.89,5.89,0,1,0,0-11.78H80.82l-2.93-5L70.18,5a10.41,10.41,0,0,0-8.78-5A9.16,9.16,0,0,0,60,.11L52.6,1.26a18,18,0,0,1-2.51.15,18.41,18.41,0,0,1-2.57-.16L40.31.11A9,9,0,0,0,38.9,0,10.39,10.39,0,0,0,30.14,5L22.43,18.21Zm0,0"/><rect class="cls-2" width="100" height="100"/></svg>