<svg xmlns="http://www.w3.org/2000/svg" viewBox="0 0 1441.27 1441.27"><defs><style>.a{fill:#fff;}</style></defs><title>mejora</title><path class="a" d="M1380.8,557.47A60.43,60.43,0,0,0,1441.27,497V60.47A60.43,60.43,0,0,0,1380.8,0H944.27a60.47,60.47,0,0,0,0,120.94h292.3l-320.05,311L800.18,393.18a60.29,60.29,0,0,0-74.65,33.37L529.12,881.85l-104.05-52a60.32,60.32,0,0,0-77.24,20.43L181.67,1098.16H120.94V900.34h73.11a30.24,30.24,0,0,0,0-60.47H120.94V642h73.11a30.24,30.24,0,0,0,0-60.47H120.94V383.73h73.11a30.24,30.24,0,0,0,0-60.47H120.94V125.49h73.11a30.24,30.24,0,1,0,0-60.47H120.94V60.47A60.47,60.47,0,0,0,0,60.47V1380.8a60.44,60.44,0,0,0,60.47,60.47H1380.8a60.47,60.47,0,1,0,0-120.94v-73.58a30.24,30.24,0,1,0-60.47,0v73.58H1122.49v-73.58a30.24,30.24,0,1,0-60.47,0v73.58H864.2v-73.58a30.24,30.24,0,1,0-60.47,0v73.58H605.9v-73.58a30.24,30.24,0,1,0-60.47,0v73.58H347.59v-73.58a30.24,30.24,0,1,0-60.47,0v73.58H178.4L418.7,961.81l113.5,56.81a60.44,60.44,0,0,0,82.56-30.11l199.84-463,98.5,32.78a60.24,60.24,0,0,0,61.29-14l345.94-336.07V497A60.44,60.44,0,0,0,1380.8,557.47ZM141.14,1158.63l-20.2,30.14v-30.14h20.2Z"/></svg>