<svg id="Capa_1" data-name="Capa 1" xmlns="http://www.w3.org/2000/svg" viewBox="0 0 100 100"><defs><style>.cls-1{fill:#fff;}.cls-2{fill:none;}</style></defs><title>iconos</title><path class="cls-1" d="M50,0a50,50,0,1,0,50,50A50,50,0,0,0,50,0Zm0,12.5a37.46,37.46,0,0,1,35.2,25H14.8A37.45,37.45,0,0,1,50,12.5Zm0,43.74A6.25,6.25,0,1,1,56.24,50,6.24,6.24,0,0,1,50,56.24ZM12.5,50c17.07,0,30.91,16.45,31.2,36.86A37.51,37.51,0,0,1,12.5,50ZM56.3,86.86C56.59,66.45,70.41,50,87.49,50A37.49,37.49,0,0,1,56.3,86.86Zm0,0"/><rect class="cls-2" width="100" height="100"/></svg>