<svg xmlns="http://www.w3.org/2000/svg" viewBox="0 0 201.77 231.12"><defs><style>.a{fill:#fff;}</style></defs><title>telemetria</title><path class="a" d="M177.3,64.45l14.55-19.25A9.31,9.31,0,0,0,177,34l-13.2,17.47A100.38,100.38,0,0,0,110.2,29.79V18.63h16a9.31,9.31,0,0,0,0-18.62H75.56a9.31,9.31,0,0,0,0,18.63h16V29.79A101,101,0,1,0,177.3,64.45Zm-76.41,148a82.26,82.26,0,1,1,82.25-82.26A82.35,82.35,0,0,1,100.89,212.5Z"/><path class="a" d="M100.89,59a9.31,9.31,0,0,0-9.31,9.31v62a9.31,9.31,0,0,0,18.63,0v-62A9.31,9.31,0,0,0,100.89,59Z"/></svg>