<svg id="Capa_1" data-name="Capa 1" xmlns="http://www.w3.org/2000/svg" xmlns:xlink="http://www.w3.org/1999/xlink" viewBox="0 0 763.88 763"><defs><style>.cls-1{fill:none;}.cls-2{clip-path:url(#clip-path);}.cls-3{fill:#fff;}</style><clipPath id="clip-path"><rect class="cls-1" width="763.88" height="763"/></clipPath></defs><title>trabajando</title><g class="cls-2"><path class="cls-3" d="M683.08,597.52a59.6,59.6,0,0,0-45.76-17.44l-44.16-44.16a334.18,334.18,0,1,0-56.48,56.56l44.08,44.08a59.9,59.9,0,0,0,17.44,45.76L660.84,745a60,60,0,0,0,84.8-84.88ZM536,478.72a261,261,0,0,1-26.4,31,252.93,252.93,0,0,1-30.08,25.68,251.78,251.78,0,0,1-326-381.76,251.76,251.76,0,0,1,429.76,178A249,249,0,0,1,536,478.72Zm0,0"/></g><path class="cls-3" d="M308.68,154.56h46c14.4,0,26.32,11.36,28.56,26.08h40.24c-2.56-36.88-32.4-66.08-68.8-66.08h-46c-36.4,0-66.24,29.2-68.8,66.08h40.24c2.16-14.8,14.16-26.08,28.56-26.08Zm0,0"/><path class="cls-3" d="M423.64,200.64H174.44c-12.16,0-25.84,11.6-33.28,18.88-4.64,5.6-5.52,9.44-5.12,13.76,3,28.72,22.08,55.76,54.48,77,28.72,18.8,64.8,31.2,104.16,35.92a310.11,310.11,0,0,0,36.88,2.24,297.63,297.63,0,0,0,66.8-7.44c27.76-6.4,53-16.8,74.32-30.72,32.4-21.28,51.44-48.4,54.48-77,.48-4.4-1.92-10.72-5.12-13.76-7.44-7.28-21.12-18.88-33.28-18.88Zm0,0"/><path class="cls-3" d="M490.36,337.12A249.62,249.62,0,0,1,424.6,367.2a322.62,322.62,0,0,1-93,13.28c-2.32,0-4.72,0-7-.08-57.12-1.12-110.72-16.4-151.68-43.28-17.28-11.36-31.6-24.32-42.8-38.64-2.72-3.52-4.72-2.88-4.72,1.52V411.52c0,28.24,21.92,51.2,49,51.2h314.4a46.76,46.76,0,0,0,24.32-6.8,51.49,51.49,0,0,0,24.64-44.4V300.08c0-4.4-2-5-4.72-1.52-11,14.24-25.36,27.2-42.64,38.56Zm0,0"/></svg>